<svg width="170" height="60" xmlns="http://www.w3.org/2000/svg" xmlns:xlink="http://www.w3.org/1999/xlink" xml:space="preserve" overflow="hidden"><defs><clipPath id="clip0"><rect x="555" y="330" width="170" height="60"/></clipPath></defs><g clip-path="url(#clip0)" transform="translate(-555 -330)"><path d="M556.924 369.379C556.443 369.388 555.975 369.216 555.614 368.897 555.293 368.537 555.119 368.069 555.126 367.587L555.126 331.794C555.11 331.33 555.286 330.881 555.612 330.552 555.955 330.194 556.43 329.995 556.924 330L573.337 330C576.852 329.908 580.356 330.445 583.682 331.587 586.39 332.525 588.668 334.411 590.097 336.896 591.568 339.333 592.304 342.666 592.304 346.896L592.304 367.515C592.291 368.005 592.094 368.473 591.752 368.825 591.41 369.181 590.936 369.381 590.442 369.376ZM566.923 358.828 579.612 358.828 579.612 347.242C579.752 345.431 579.155 343.641 577.957 342.276 576.899 341.126 575.244 340.551 572.991 340.551L566.923 340.551ZM624.147 376.138C624.252 375.405 623.743 374.725 623.01 374.62 622.884 374.602 622.756 374.602 622.63 374.62L608.281 374.62C607.548 374.515 606.869 375.024 606.764 375.757 606.746 375.883 606.746 376.011 606.764 376.138L606.764 379.725C606.659 380.458 607.169 381.137 607.902 381.241 608.028 381.259 608.156 381.259 608.281 381.241L612.488 381.241 612.488 385.655C612.383 386.388 612.892 387.067 613.625 387.172 613.751 387.19 613.879 387.19 614.006 387.172L616.695 387.172C617.428 387.278 618.108 386.769 618.213 386.036 618.231 385.909 618.231 385.781 618.213 385.655L618.213 381.241 622.627 381.241C623.36 381.346 624.039 380.837 624.144 380.104 624.162 379.978 624.162 379.85 624.144 379.724ZM602.893 348.175C602.16 348.28 601.48 347.771 601.375 347.038 601.357 346.912 601.357 346.783 601.375 346.657L601.375 342.86C601.27 342.127 601.779 341.448 602.512 341.343 602.638 341.324 602.767 341.324 602.893 341.343L606.69 341.343C607.423 341.237 608.102 341.746 608.208 342.479 608.226 342.606 608.226 342.734 608.208 342.86L608.208 346.657C608.313 347.39 607.805 348.07 607.072 348.176 606.943 348.194 606.812 348.194 606.683 348.175ZM613.332 369.379C612.599 369.484 611.92 368.975 611.815 368.242 611.796 368.116 611.796 367.988 611.815 367.861L611.815 348.207C611.716 345.874 612.02 343.542 612.714 341.313 613.129 339.871 614.455 338.884 615.955 338.899L628.849 338.899C627.7 338.899 626.757 339.887 626.022 341.864 625.274 344.177 624.924 346.6 624.987 349.03L624.987 367.862C624.98 368.329 624.714 368.753 624.297 368.962 623.884 369.223 623.407 369.367 622.918 369.375ZM598.298 340.552C597.816 340.561 597.349 340.389 596.988 340.07 596.669 339.709 596.496 339.241 596.505 338.76L596.505 331.794C596.489 331.33 596.665 330.881 596.991 330.552 597.332 330.196 597.805 329.996 598.298 330L629.472 330C629.948 329.987 630.404 330.19 630.713 330.552 631.074 330.861 631.276 331.318 631.262 331.794L631.262 338.759C631.262 339.218 631.09 339.661 630.78 340 630.46 340.387 629.97 340.594 629.47 340.551ZM661.674 381.449C660.941 381.554 660.261 381.045 660.156 380.312 660.138 380.186 660.138 380.058 660.156 379.932L660.156 376.136C660.051 375.403 660.56 374.723 661.293 374.618 661.419 374.6 661.548 374.6 661.674 374.618L666.018 374.618C666.752 374.515 667.43 375.026 667.533 375.759 667.55 375.885 667.55 376.012 667.532 376.138L667.532 379.934C667.637 380.668 667.127 381.347 666.394 381.451 666.268 381.469 666.14 381.469 666.014 381.451ZM661.674 389.725C660.941 389.83 660.261 389.321 660.156 388.588 660.138 388.462 660.138 388.334 660.156 388.207L660.156 384.345C660.051 383.612 660.56 382.932 661.293 382.827 661.419 382.809 661.548 382.809 661.674 382.827L666.018 382.827C666.751 382.722 667.431 383.231 667.536 383.964 667.554 384.09 667.554 384.218 667.536 384.345L667.536 388.206C667.641 388.94 667.132 389.619 666.399 389.724 666.273 389.742 666.145 389.742 666.018 389.724ZM638.685 382.552C638.191 382.557 637.717 382.357 637.375 382.001 637.05 381.671 636.876 381.222 636.893 380.76L636.893 348.345C636.876 347.882 637.05 347.433 637.375 347.104 637.717 346.747 638.191 346.547 638.685 346.552L648.064 346.552C648.536 346.557 648.985 346.757 649.305 347.104 649.667 347.413 649.87 347.869 649.857 348.345L649.857 380.759C649.87 381.234 649.667 381.691 649.305 382 648.985 382.346 648.536 382.546 648.064 382.551ZM656.409 370.345C655.904 370.42 655.399 370.208 655.099 369.794 654.716 369.407 654.495 368.89 654.479 368.346L654.479 360.207C654.498 359.697 654.693 359.21 655.031 358.828 655.353 358.403 655.781 358.071 656.271 357.863L658.341 357.035C659.389 356.582 660.365 355.978 661.238 355.242 662.191 354.463 662.948 353.47 663.445 352.344 664.043 350.855 664.325 349.258 664.273 347.654 664.315 346.395 664.152 345.137 663.79 343.93 663.503 343.006 662.857 342.236 661.997 341.792 660.876 341.271 659.645 341.034 658.411 341.103L638.685 341.103C638.226 341.103 637.783 340.931 637.444 340.62 637.087 340.278 636.888 339.804 636.893 339.31L636.893 331.656C636.889 331.201 637.091 330.77 637.443 330.483 637.782 330.172 638.225 330 638.685 330L661.306 330C665.352 330 668.594 330.69 671.03 332.069 673.447 333.376 675.345 335.468 676.41 338 677.585 340.912 678.149 344.034 678.065 347.173 678.099 350.032 677.559 352.87 676.479 355.518 675.502 357.947 674.074 360.17 672.272 362.069 670.479 363.909 668.436 365.488 666.203 366.759 663.984 367.987 661.621 368.937 659.169 369.587ZM710.843 389.996C710.11 390.101 709.431 389.591 709.326 388.858 709.308 388.732 709.308 388.604 709.326 388.478L709.326 384.62C709.221 383.887 709.73 383.208 710.463 383.103 710.589 383.085 710.717 383.085 710.843 383.103L715.256 383.103C715.989 382.998 716.669 383.508 716.773 384.241 716.791 384.367 716.791 384.495 716.773 384.62L716.773 388.482C716.878 389.215 716.369 389.895 715.636 390 715.51 390.018 715.382 390.018 715.256 390ZM694.568 381.444C693.834 381.549 693.155 381.04 693.05 380.307 693.032 380.181 693.032 380.053 693.05 379.927L693.05 376.131C692.945 375.398 693.454 374.718 694.187 374.613 694.313 374.595 694.441 374.595 694.568 374.613L698.981 374.613C699.714 374.508 700.393 375.017 700.499 375.75 700.517 375.876 700.517 376.004 700.499 376.131L700.499 379.927C700.603 380.661 700.094 381.34 699.361 381.444 699.235 381.462 699.107 381.462 698.981 381.444ZM702.568 385.789C701.835 385.894 701.155 385.385 701.05 384.652 701.032 384.525 701.032 384.397 701.05 384.271L701.05 380.414C700.945 379.681 701.454 379.001 702.187 378.896 702.313 378.878 702.442 378.878 702.568 378.896L706.912 378.896C707.645 378.792 708.325 379.301 708.429 380.034 708.447 380.16 708.447 380.288 708.429 380.414L708.429 384.276C708.534 385.009 708.025 385.688 707.292 385.793 707.166 385.811 707.038 385.811 706.912 385.794ZM706.25 341.026 684.733 341.095C684.273 341.095 683.831 340.923 683.492 340.612 683.135 340.27 682.935 339.796 682.94 339.302L682.94 331.794C682.927 331.318 683.13 330.862 683.492 330.553 683.812 330.206 684.261 330.006 684.733 330.001L708.318 330.001C711.215 329.953 714.087 330.542 716.732 331.726 719.247 332.817 721.332 334.708 722.663 337.105 724.256 340.091 725.018 343.451 724.87 346.832L724.87 367.587C724.875 368.081 724.676 368.555 724.319 368.897 723.989 369.221 723.54 369.396 723.078 369.379L703.974 369.379C703.056 369.452 702.253 368.768 702.18 367.85 702.173 367.762 702.173 367.674 702.18 367.586L702.18 360.62C702.163 360.158 702.338 359.709 702.663 359.38 703.005 359.023 703.479 358.823 703.973 358.828L711.559 358.828 711.559 347.448C711.604 346.239 711.368 345.035 710.87 343.931 710.481 343.046 709.831 342.3 709.008 341.793 708.182 341.276 707.223 341.013 706.25 341.037ZM684.249 369.379C683.748 369.38 683.261 369.21 682.87 368.897 682.512 368.563 682.378 368.053 682.526 367.587L690.388 338.211C690.5 337.757 690.712 337.333 691.009 336.97 691.295 336.618 691.727 336.415 692.181 336.419L700.319 336.488C700.84 336.496 701.327 336.752 701.629 337.177 702.006 337.529 702.187 338.045 702.111 338.556L695.417 367.591C695.422 368.085 695.222 368.559 694.865 368.901 694.527 369.211 694.084 369.383 693.624 369.383Z" fill="#FFFFFF"/></g></svg>